Coordinates
version=1
nRows=31
nColumns=38
inDegrees=no

Units are S.I. units (second, meters, Newtons, ...)
If the header above contains a line with 'inDegrees', this indicates whether rotational values are in degrees (yes) or radians (no).

endheader
time	pelvis_tilt	pelvis_list	pelvis_rotation	pelvis_tx	pelvis_ty	pelvis_tz	hip_flexion_r	hip_adduction_r	hip_rotation_r	knee_angle_r	ankle_angle_r	subtalar_angle_r	mtp_angle_r	hip_flexion_l	hip_adduction_l	hip_rotation_l	knee_angle_l	ankle_angle_l	subtalar_angle_l	mtp_angle_l	lumbar_extension	lumbar_bending	lumbar_rotation	arm_flex_r	arm_add_r	arm_rot_r	elbow_flex_r	pro_sup_r	wrist_flex_r	wrist_dev_r	arm_flex_l	arm_add_l	arm_rot_l	elbow_flex_l	pro_sup_l	wrist_flex_l	wrist_dev_l
0	-0.713247	1.37426	-1.08001	0.822926	1.682	0.965791	0.170311	0.195946	-0.0668827	0.443326	0.0280541	0	0	0.00282943	-0.26245	-0.286979	1.0826	0.270548	0	0	-0.37882	0.151348	0.161015	0.429515	-0.482183	0.29544	1.00299	0.849829	0	0	0.314706	-0.310022	0.104928	1.0105	0.846438	0	0
0.01	-0.640847	1.37636	-1.15756	0.821504	1.67205	0.968375	0.152473	0.181272	-0.0580052	0.444299	0.0403011	0	0	0.0114592	-0.248408	-0.286693	1.04933	0.282054	0	0	-0.384098	0.134643	0.161067	0.431462	-0.475868	0.291644	0.998521	0.861382	0	0	0.30981	-0.306618	0.0225046	1.01489	0.418532	0	0
0.02	-0.565559	1.37386	-1.237	0.82022	1.66164	0.970611	0.131185	0.166562	-0.053461	0.446397	0.0547887	0	0	0.016738	-0.239653	-0.294821	1.02025	0.275248	0	0	-0.390438	0.117432	0.164005	0.428395	-0.471502	0.281634	0.99577	0.86883	0	0	0.31669	-0.319244	0.114711	1.01336	0.821539	0	0
0.03	-0.511035	1.37361	-1.29653	0.819129	1.65118	0.972261	0.115679	0.154404	-0.0482518	0.450101	0.0690286	0	0	0.0263133	-0.232764	-0.302536	0.988998	0.279414	0	0	-0.392242	0.104579	0.165768	0.427834	-0.46811	0.279199	0.993127	0.8675	0	0	0.31582	-0.321803	0.116276	1.01346	0.823949	0	0
0.04	-0.457444	1.37268	-1.35608	0.818158	1.64074	0.973635	0.101716	0.142228	-0.0407412	0.456733	0.0844697	0	0	0.0350668	-0.225912	-0.312585	0.956521	0.284499	0	0	-0.394054	0.0918499	0.168361	0.427639	-0.46557	0.277167	0.991047	0.866023	0	0	0.314745	-0.324154	0.1188	1.01451	0.824877	0	0
0.05	-0.406883	1.37052	-1.41292	0.817343	1.63033	0.974772	0.0890442	0.130543	-0.0312131	0.466634	0.100492	0	0	0.0431072	-0.219484	-0.32379	0.923762	0.290405	0	0	-0.396441	0.0800358	0.171313	0.427862	-0.464317	0.276158	0.989433	0.866317	0	0	0.313447	-0.325766	0.119759	1.01589	0.822483	0	0
0.06	-0.354668	1.36672	-1.47182	0.816609	1.61998	0.975737	0.076917	0.118316	-0.019821	0.479634	0.117008	0	0	0.0493959	-0.212311	-0.336595	0.890037	0.295983	0	0	-0.400034	0.0677921	0.174496	0.428383	-0.463619	0.274811	0.988928	0.869221	0	0	0.312464	-0.32706	0.120476	1.01727	0.818114	0	0
0.07	-0.305618	1.36173	-1.52604	0.816092	1.60962	0.976479	0.0650224	0.106334	-0.00860176	0.493739	0.132648	0	0	0.0556012	-0.205131	-0.348165	0.857026	0.301754	0	0	-0.404016	0.0566123	0.176446	0.428744	-0.46325	0.272317	0.989674	0.875781	0	0	0.311983	-0.327666	0.121021	1.01753	0.81422	0	0
0.08	-0.259346	1.35607	-1.5759	0.815715	1.59924	0.976977	0.0531432	0.0945497	0.00208931	0.508246	0.148341	0	0	0.0620837	-0.197597	-0.358207	0.824174	0.306241	0	0	-0.407731	0.0460714	0.176881	0.429022	-0.462742	0.270597	0.990557	0.880041	0	0	0.311726	-0.327739	0.121256	1.01699	0.813292	0	0
0.09	-0.21278	1.35023	-1.62443	0.815478	1.58879	0.977216	0.0413169	0.0822127	0.0112109	0.522606	0.164903	0	0	0.0690898	-0.188692	-0.366614	0.790902	0.308504	0	0	-0.410608	0.0354106	0.175387	0.429249	-0.461512	0.269285	0.990852	0.882201	0	0	0.311195	-0.327854	0.120788	1.01597	0.81486	0	0
0.1	-0.1689	1.34441	-1.66914	0.815299	1.5783	0.977226	0.029043	0.0700961	0.0191258	0.53516	0.181579	0	0	0.0765167	-0.179659	-0.375099	0.756753	0.309283	0	0	-0.412574	0.0250338	0.17263	0.42937	-0.45936	0.267633	0.990415	0.883784	0	0	0.310304	-0.328242	0.119468	1.01509	0.818081	0	0
0.11	-0.128852	1.3386	-1.70918	0.815181	1.56778	0.977083	0.0158699	0.0583283	0.0258155	0.544958	0.198128	0	0	0.0838733	-0.170962	-0.384653	0.721371	0.308853	0	0	-0.413876	0.015174	0.169164	0.429152	-0.456737	0.265902	0.98973	0.884074	0	0	0.309309	-0.328838	0.117603	1.01462	0.814903	0	0
0.12	-0.0924465	1.33273	-1.74489	0.815161	1.55723	0.976841	0.00212569	0.0466918	0.0306877	0.55326	0.214567	0	0	0.0908371	-0.162403	-0.395336	0.684336	0.307499	0	0	-0.414817	0.00591443	0.165326	0.428498	-0.454141	0.264561	0.98929	0.880958	0	0	0.309077	-0.329627	0.117848	1.01305	0.811991	0	0
0.13	-0.0604177	1.32718	-1.77593	0.815211	1.54664	0.976468	-0.0116039	0.0355596	0.03414	0.56073	0.230775	0	0	0.0975921	-0.154058	-0.406853	0.645687	0.30594	0	0	-0.41514	-0.00256119	0.161916	0.427134	-0.451864	0.26231	0.989091	0.877812	0	0	0.309099	-0.330386	0.119357	1.01102	0.811793	0	0
0.14	-0.0321475	1.32257	-1.8034	0.815245	1.53596	0.975912	-0.0246547	0.0251734	0.036934	0.567441	0.246813	0	0	0.104452	-0.145947	-0.419286	0.605267	0.304534	0	0	-0.414204	-0.0105454	0.159465	0.424932	-0.449791	0.259134	0.987977	0.87844	0	0	0.308932	-0.331069	0.121525	1.00955	0.811085	0	0
0.15	-0.0268972	1.3079	-1.71227	0.824641	1.52898	0.97567	-0.057315	0.0168948	-0.0674278	0.558712	0.256975	0	0	0.140568	-0.119886	-0.298152	0.584491	0.292937	0	0	-0.440099	0.0206906	0.0709605	0.44146	-0.451054	0.263243	0.995111	0.869036	0	0	0.326604	-0.34009	0.132316	1.02045	0.795934	0	0
0.16	-0.00820985	1.30605	-1.73086	0.824669	1.51812	0.974652	-0.0692381	0.00995839	-0.0656014	0.564178	0.272315	0	0	0.146888	-0.112965	-0.310516	0.540851	0.29213	0	0	-0.436881	0.014686	0.0694041	0.438765	-0.450066	0.261484	0.994896	0.871268	0	0	0.324462	-0.339889	0.131317	1.02045	0.792943	0	0
0.17	0.00920837	1.30479	-1.74788	0.824794	1.50721	0.973437	-0.0806897	0.0030837	-0.0648894	0.56938	0.287533	0	0	0.152679	-0.105305	-0.321612	0.494996	0.290217	0	0	-0.433349	0.00909031	0.0676434	0.435999	-0.449624	0.260016	0.995581	0.87484	0	0	0.321778	-0.33926	0.12873	1.02145	0.795037	0	0
0.18	0.0227217	1.30439	-1.76068	0.825014	1.49624	0.971997	-0.0915678	-0.00261793	-0.0647472	0.574038	0.302449	0	0	0.158224	-0.0977091	-0.33088	0.44721	0.287344	0	0	-0.429505	0.00481065	0.0660259	0.433037	-0.45006	0.258612	0.997521	0.878698	0	0	0.318694	-0.338239	0.125026	1.02364	0.800062	0	0
0.19	0.0312261	1.30474	-1.76805	0.825352	1.4852	0.970379	-0.102143	-0.00695121	-0.0656679	0.578341	0.317153	0	0	0.163107	-0.0904698	-0.337547	0.397461	0.283209	0	0	-0.425337	0.00221553	0.0649289	0.429404	-0.451377	0.256229	1.00067	0.882584	0	0	0.315792	-0.336751	0.121151	1.02633	0.804355	0	0
0.2	0.0348761	1.30555	-1.77006	0.825842	1.47408	0.968673	-0.11329	-0.0095945	-0.0664303	0.581409	0.331231	0	0	0.166696	-0.0833887	-0.341491	0.345411	0.278572	0	0	-0.421064	0.00130822	0.0640904	0.425627	-0.453246	0.254147	1.00416	0.882102	0	0	0.313222	-0.335077	0.11813	1.02903	0.806646	0	0
0.21	0.0341248	1.30683	-1.76748	0.826418	1.46282	0.966922	-0.125217	-0.0107261	-0.0670552	0.582884	0.344517	0	0	0.168417	-0.0763663	-0.342925	0.290413	0.273031	0	0	-0.416443	0.00175887	0.0632607	0.422301	-0.455045	0.25231	1.00743	0.879489	0	0	0.310551	-0.333629	0.116528	1.03159	0.810407	0	0
0.22	0.0297142	1.30883	-1.76115	0.827063	1.45138	0.965109	-0.137776	-0.0106338	-0.0676559	0.582322	0.357008	0	0	0.168213	-0.0691789	-0.341539	0.232058	0.265706	0	0	-0.410928	0.00335828	0.062068	0.419798	-0.456661	0.252966	1.00984	0.871437	0	0	0.307428	-0.332196	0.114796	1.03356	0.815781	0	0
0.23	0.0219454	1.31188	-1.75142	0.827785	1.43972	0.963195	-0.150491	-0.00955892	-0.0687597	0.579857	0.368689	0	0	0.166295	-0.061835	-0.337573	0.170326	0.255772	0	0	-0.404055	0.00610618	0.0602115	0.418076	-0.458238	0.255261	1.01075	0.865597	0	0	0.303559	-0.330433	0.111559	1.03489	0.821936	0	0
0.24	0.0104953	1.31598	-1.73808	0.828532	1.42788	0.961199	-0.163113	-0.0075764	-0.0706252	0.575747	0.379253	0	0	0.162746	-0.0549429	-0.33033	0.106285	0.243492	0	0	-0.395984	0.00978104	0.0583223	0.416474	-0.459632	0.256901	1.01114	0.864633	0	0	0.299779	-0.328192	0.108264	1.03526	0.826894	0	0
0.25	-0.00708181	1.32126	-1.71878	0.829289	1.41586	0.959102	-0.175462	-0.00402936	-0.0727957	0.570188	0.388749	0	0	0.157991	-0.0494275	-0.319185	0.0412467	0.229624	0	0	-0.386625	0.014966	0.0572345	0.414553	-0.461094	0.257969	1.01118	0.865074	0	0	0.296522	-0.325469	0.105293	1.03421	0.832201	0	0
0.26	-0.0307664	1.32817	-1.69315	0.830076	1.4037	0.956841	-0.186635	0.0012803	-0.0746518	0.563857	0.397483	0	0	0.15651	-0.0466216	-0.313016	0	0.221973	0	0	-0.375503	0.0217269	0.0565718	0.41221	-0.462794	0.259051	1.01124	0.864427	0	0	0.294214	-0.322455	0.104184	1.03172	0.834752	0	0
0.27	-0.0581315	1.33235	-1.66362	0.831069	1.39249	0.954677	-0.199937	0.00315794	-0.080553	0.557455	0.408229	0	0	0.177777	-0.0512456	-0.316856	0	0.229078	0	0	-0.369025	0.0285191	0.0555894	0.412148	-0.464177	0.260689	1.01123	0.863389	0	0	0.294504	-0.319696	0.104268	1.02829	0.837948	0	0
0.28	-0.0801459	1.33671	-1.63715	0.831784	1.38095	0.952589	-0.213421	0.00829336	-0.0831845	0.550326	0.414441	0	0	0.191493	-0.0540336	-0.324397	0	0.237677	0	0	-0.361937	0.0333921	0.0530239	0.411767	-0.46482	0.261451	1.01045	0.863083	0	0	0.295854	-0.317671	0.104752	1.02429	0.841755	0	0
0.29	-0.101078	1.34059	-1.61256	0.832446	1.3693	0.950639	-0.227428	0.0125981	-0.0856668	0.542857	0.419346	0	0	0.202289	-0.0560964	-0.330756	0	0.245108	0	0	-0.355498	0.0373344	0.0503051	0.412715	-0.464911	0.263202	1.00844	0.862957	0	0	0.297209	-0.316192	0.104361	1.02032	0.846671	0	0
0.3	-0.120979	1.34401	-1.59039	0.833004	1.35747	0.948825	-0.241456	0.0159592	-0.0873948	0.536119	0.422989	0	0	0.209744	-0.0576231	-0.33575	0	0.251131	0	0	-0.349643	0.0401968	0.0479048	0.41482	-0.464592	0.266262	1.00544	0.862466	0	0	0.298251	-0.315337	0.103649	1.01743	0.848145	0	0
